<?xml version="1.0" encoding="UTF-8"?>
<svg width="166px" height="200px" viewBox="0 0 166 200" version="1.1" xmlns="http://www.w3.org/2000/svg" xmlns:xlink="http://www.w3.org/1999/xlink" xmlns:sketch="http://www.bohemiancoding.com/sketch/ns">
    <!-- Generator: Sketch 3.4.2 (15855) - http://www.bohemiancoding.com/sketch -->
    <title>logo</title>
    <desc>Created with Sketch.</desc>
    <defs></defs>
    <g id="Page-1" stroke="none" stroke-width="1" fill="none" fill-rule="evenodd" sketch:type="MSPage">
        <g id="logo" sketch:type="MSLayerGroup" transform="translate(-48.000000, -32.000000)">
            <g id="logo-Clipped" sketch:type="MSShapeGroup">
                <g id="logo" transform="translate(48.000000, 32.000000)">
                    <g id="Decal">
                        <path d="M25.35475,0.412178333 C19.7095,6.407075 13.6560833,12.1124167 7.8299,17.9369167 L7.8299,17.9369167 C5.79270833,19.975 1.52265833,22.8909167 0.4313425,25.531 L0.4313425,25.531 C-0.408315833,27.5641667 0.236655,31.6338333 0.236655,34.0986667 L0.236655,34.0986667 L0.236655,54.15475 C0.236655,56.9481667 -0.433496667,61.62875 0.626104167,63.6960833 L0.626104167,63.6960833 C1.46011667,65.3235833 3.62968333,66.6996667 4.90996667,67.9806667 L4.90996667,67.9806667 L14.8406667,77.9106667 C17.1813333,80.2514167 22.0988333,86.5083333 25.35475,87.2575 L25.35475,87.2575 C28.497,87.98 30.6145833,84.335 31.976,82.9734167 L31.976,82.9734167 C36.81075,78.1378333 41.5496667,73.20575 46.3844167,68.3685833 L46.3844167,68.3685833 C47.728,67.0258333 51.065,65.1638333 50.2796667,61.9436667 L50.2796667,61.9436667 C49.8025833,59.9915833 48.3755,59.0658333 47.1649167,57.8545833 L47.1649167,57.8545833 C46.2555,56.816 45.34675,55.7775833 44.4380833,54.739 L44.4380833,54.739 C42.1923333,52.4851667 38.9543333,50.4275833 38.01225,46.951 L38.01225,46.951 C37.4249167,44.7823333 38.4025833,42.5999167 38.9859167,41.4980833 L38.9859167,41.4980833 C39.86775,39.8324167 41.0694167,38.4775 42.88025,37.7984167 L42.88025,37.7984167 C44.57275,37.1639167 47.09925,37.4089167 49.3060833,37.4089167 L49.3060833,37.4089167 L61.7689167,37.4089167 L61.7689167,0.217454167 C58.13575,0.218234167 54.441,0.163080833 50.7315833,0.1095625 L50.7315833,0.1095625 C47.04,0.0551898333 43.333,0 39.65775,0 L39.65775,0 C34.80025,0 29.9963333,0.0949291667 25.35475,0.412178333" id="path22-path" fill="#4E5550"></path>
                        <path d="M132.646842,0.218145888 L117.458258,0.218145888 L65.4680917,0.218145888 L65.4680917,37.4096401 L108.695842,37.4096401 C114.186092,37.4088901 122.687258,36.3646401 126.026842,38.7735567 L126.026842,38.7735567 C128.070175,40.2477234 129.734342,44.7465567 127.973508,47.7298067 L127.973508,47.7298067 C126.258508,50.6352234 121.870258,54.0282234 119.405425,56.4930567 L119.405425,56.4930567 L109.865008,66.0334734 C108.486592,67.4127234 107.224092,69.2365567 105.581092,70.3173067 L105.581092,70.3173067 L105.581092,70.5120567 L105.385592,70.5120567 C104.104592,68.5843067 101.948008,67.0743901 100.322925,65.4493067 L100.322925,65.4493067 C97.7908417,62.8530567 95.2593417,60.2567234 92.7288417,57.6597234 L92.7288417,57.6597234 C90.8652583,55.7960567 88.8855917,54.1425567 87.275925,52.0136401 L87.275925,52.0136401 C86.1350917,50.5013067 84.2545083,49.5333901 83.1868417,47.9245567 L83.1868417,47.9245567 C81.8107583,48.3018067 77.2543417,53.6630567 75.982925,54.9336401 L75.982925,54.9336401 C69.5580083,61.2943901 63.1305917,67.6568901 56.705675,74.0168901 L56.705675,74.0168901 C57.291425,75.6428901 61.7415917,79.2483901 63.131425,80.6365567 L63.131425,80.6365567 C66.8635083,84.3698067 70.4983417,88.1989734 74.2305083,91.9323067 L74.2305083,91.9323067 C75.8530917,93.5539734 77.365425,95.7206401 79.293175,96.9939734 L79.293175,96.9939734 C78.3925917,98.3506401 76.9272583,99.3606401 75.788175,100.498973 L75.788175,100.498973 C73.126925,103.224807 70.4658417,105.95064 67.804675,108.677307 L67.804675,108.677307 C66.5065917,109.91064 65.2083417,111.143973 63.9102583,112.376473 L63.9102583,112.376473 C60.055675,117.478973 54.2538417,122.22814 49.6957583,126.784807 L49.6957583,126.784807 C47.6836333,128.79814 45.6714667,130.809807 43.6593833,132.822307 L43.6593833,132.822307 C42.7636417,133.71814 42.0051,134.83814 40.9324975,135.54814 L40.9324975,135.54814 L40.9324975,151.904807 C40.9324975,154.216473 40.4894925,157.56314 41.1271842,159.498973 L41.1271842,159.498973 L68.972925,159.498973 C76.6310917,151.77564 84.291675,144.05064 91.949925,136.32814 L91.949925,136.32814 C94.2207583,134.612307 95.9968417,132.474807 97.986175,130.486473 L97.986175,130.486473 L108.890508,119.581473 C119.989508,108.482307 131.087675,97.3823067 142.187675,86.2839734 L142.187675,86.2839734 C147.446008,81.0268067 152.701842,75.7685567 157.959342,70.5119734 L157.959342,70.5119734 C159.582675,68.8893067 161.205175,67.2666401 162.827675,65.6439734 L162.827675,65.6439734 C163.421842,65.0493067 164.386842,64.4610567 164.775175,63.6967234 L164.775175,63.6967234 C165.854342,61.5734734 165.164342,56.8101401 165.164342,53.9615567 L165.164342,53.9615567 L165.164342,34.2939734 C165.164342,31.7107234 165.788508,27.7019734 164.969342,25.5316401 L164.969342,25.5316401 C164.350175,23.8878901 160.128508,20.4973067 158.738508,19.1058901 L158.738508,19.1058901 C154.390175,14.7571401 150.041008,10.4084734 145.691842,6.06046506 L145.691842,6.06046506 C143.973508,4.34048172 142.051842,1.30526506 139.656008,0.412795888 L139.656008,0.412795888 C138.927675,0.141006055 137.957675,0.0623067217 136.921842,0.0623067217 L136.921842,0.0623067217 C135.468508,0.0623067217 133.883508,0.218108388 132.646842,0.218108388" id="path22-path" fill="#FBAF3B"></path>
                        <path d="M50.4731242,80.4419917 C47.4874575,83.4277 44.5025409,86.4134333 41.5168742,89.3991 L41.5168742,89.3991 C31.5869575,99.2632667 21.6546242,109.131517 11.7247075,118.996517 L11.7247075,118.996517 C9.12837419,121.59285 6.53216585,124.18985 3.93594085,126.784517 L3.93594085,126.784517 C2.55664085,128.1646 0.821241686,129.296433 0.236214186,131.4586 L0.236214186,131.4586 L0.236214186,167.0921 C0.236214186,170.353767 -0.436314148,177.497933 0.820350019,179.5546 L0.820350019,179.5546 C1.86784085,181.268767 3.88966585,182.623767 5.29897419,184.032933 L5.29897419,184.032933 C8.77062419,187.506267 12.3412909,190.880433 15.8138742,194.352933 L15.8138742,194.352933 C17.7017909,196.2421 19.5443742,199.2171 22.4342909,199.9996 L22.4342909,199.9996 L104.606458,199.9996 L104.606458,163.002933 L37.2337909,163.002933 L37.2337909,143.336517 C37.2337909,140.743433 36.6172075,136.758183 37.4277075,134.574933 L37.4277075,134.574933 C38.2917909,132.24635 41.2125409,130.398933 42.8798742,128.732517 L42.8798742,128.732517 C47.0987909,124.449433 51.3185409,120.164017 55.5366242,115.88185 L55.5366242,115.88185 C60.0142909,111.46735 64.4937075,107.053683 68.9722909,102.640017 L68.9722909,102.640017 C70.1909575,101.424683 73.1262909,99.65435 72.4763742,96.7984333 L72.4763742,96.7984333 C71.8111242,93.8671 69.0557909,92.2087667 67.2197909,90.3726833 L67.2197909,90.3726833 C65.9865409,89.0096833 64.7533742,87.6457667 63.5201242,86.2836 L63.5201242,86.2836 C61.4049575,84.1684583 59.1112909,82.2707583 57.2890409,79.85785 L57.2890409,79.85785 C56.4728742,78.7771917 55.1414575,78.0948583 54.3682909,76.9371 L54.3682909,76.9371 C52.7188742,77.2835408 51.5310409,79.3856917 50.4731242,80.4420667" id="path22-path" fill="#4E5550"></path>
                        <path d="M133.814033,110.622617 L120.572283,123.863567 C118.803617,125.6339 115.994708,127.331233 115.31565,130.0954 L115.31565,130.0954 C114.640667,132.8434 116.924533,134.4279 118.0417,135.546733 L118.0417,135.546733 C120.249367,137.81765 122.45545,140.090233 124.661367,142.361983 L124.661367,142.361983 L127.583033,145.088817 C128.282367,146.148483 127.97245,148.67165 127.97245,150.345483 L127.97245,150.345483 L127.97245,163.002233 L108.305867,163.002233 L108.305867,199.9994 L144.523783,199.9994 C146.825533,199.3644 148.274617,197.0269 149.780367,195.520233 L149.780367,195.520233 C153.2862,192.015233 156.790367,188.510567 160.2952,185.00565 L160.2952,185.00565 C161.572283,183.7294 164.664283,181.514483 165.164033,179.74815 L165.164033,179.74815 L165.164033,155.9924 L165.164033,137.298483 C165.164033,134.8604 165.602117,131.2394 164.579867,129.705233 L164.579867,129.705233 C162.762533,127.952733 160.945117,126.200233 159.127783,124.446983 L159.127783,124.446983 C155.3307,120.650733 151.631033,116.75715 147.83395,112.959308 L147.83395,112.959308 C145.9022,111.025883 143.761783,107.688867 141.0187,106.728244 L141.0187,106.728244 C140.507617,106.549787 140.028117,106.470233 139.574533,106.470233 L139.574533,106.470233 C136.87195,106.470233 135.145533,109.291225 133.814117,110.622658" id="path22-path" fill="#FBAF3B"></path>
                    </g>
                </g>
            </g>
        </g>
    </g>
</svg>