<?xml version="1.0" encoding="utf-8"?>
<svg viewBox="0 0 500 500" xmlns="http://www.w3.org/2000/svg">
  <defs>
    <radialGradient cx="0.5" cy="0.5" r="1" id="gradient">
      <stop offset="0.2" style="stop-color: #e33bc8;"/>
      <stop offset="0.6" style="stop-color: #94187f;"/>
    </radialGradient>
  </defs>
  <path
    style="fill: url(#gradient); stroke-width: 64px; stroke: rgb(0, 0, 0); stroke-linecap: round; stroke-linejoin: round;"
    transform="matrix(0.819049, 0, 0, 0.819053, 168.739685, 143.982239)"
    d="M 67.183863092 -114.745 L 131.242136908 -114.745 L 140.847233848 -60.706340053 A 192.815 192.815 0 0 1 188.334597224 -43.42235328 L 230.427909419 -78.644331144 L 279.499394112 -37.468466436 L 252.12194419 10.101586032 A 192.815 192.815 0 0 1 277.389442479 53.86617685 L 332.275041337 53.941635961 L 343.39864385 117.02672066 L 291.848860152 135.869609418 A 192.815 192.815 0 0 1 283.073550087 185.636865847 L 325.069853918 220.974453776 L 293.04071701 276.450546224 L 241.439316239 257.749474206 A 192.815 192.815 0 0 1 202.727262927 290.232743862 L 212.183734431 344.297610484 L 151.988647226 366.206830476 L 124.480498289 318.712237118 A 192.815 192.815 0 0 1 73.945501711 318.712237118 L 46.437352774 366.206830476 L -13.757734431 344.297610484 L -4.301262927 290.232743862 A 192.815 192.815 0 0 1 -43.013316239 257.749474206 L -94.61471701 276.450546224 L -126.643853918 220.974453776 L -84.647550087 185.636865847 A 192.815 192.815 0 0 1 -93.422860152 135.869609418 L -144.97264385 117.02672066 L -133.849041337 53.941635961 L -78.963442479 53.86617685 A 192.815 192.815 0 0 1 -53.69594419 10.101586032 L -81.073394112 -37.468466436 L -32.001909419 -78.644331144 L 10.091402776 -43.42235328 A 192.815 192.815 0 0 1 57.578766152 -60.706340053 Z M 99.213 5.01 A 122.55 122.55 0 0 0 99.213 250.11 A 122.55 122.55 0 0 0 99.213 5.01"
  />
  <path
    style="fill: url(#gradient);"
    transform="matrix(0.819049, 0, 0, 0.819053, 168.739685, 143.982239)"
    d="M 67.183863092 -114.745 L 131.242136908 -114.745 L 140.847233848 -60.706340053 A 192.815 192.815 0 0 1 188.334597224 -43.42235328 L 230.427909419 -78.644331144 L 279.499394112 -37.468466436 L 252.12194419 10.101586032 A 192.815 192.815 0 0 1 277.389442479 53.86617685 L 332.275041337 53.941635961 L 343.39864385 117.02672066 L 291.848860152 135.869609418 A 192.815 192.815 0 0 1 283.073550087 185.636865847 L 325.069853918 220.974453776 L 293.04071701 276.450546224 L 241.439316239 257.749474206 A 192.815 192.815 0 0 1 202.727262927 290.232743862 L 212.183734431 344.297610484 L 151.988647226 366.206830476 L 124.480498289 318.712237118 A 192.815 192.815 0 0 1 73.945501711 318.712237118 L 46.437352774 366.206830476 L -13.757734431 344.297610484 L -4.301262927 290.232743862 A 192.815 192.815 0 0 1 -43.013316239 257.749474206 L -94.61471701 276.450546224 L -126.643853918 220.974453776 L -84.647550087 185.636865847 A 192.815 192.815 0 0 1 -93.422860152 135.869609418 L -144.97264385 117.02672066 L -133.849041337 53.941635961 L -78.963442479 53.86617685 A 192.815 192.815 0 0 1 -53.69594419 10.101586032 L -81.073394112 -37.468466436 L -32.001909419 -78.644331144 L 10.091402776 -43.42235328 A 192.815 192.815 0 0 1 57.578766152 -60.706340053 Z M 99.213 5.01 A 122.55 122.55 0 0 0 99.213 250.11 A 122.55 122.55 0 0 0 99.213 5.01"
  />
</svg>
