<?xml version="1.0" encoding="UTF-8" standalone="no"?>
<svg
   width="180.539"
   height="180.539"
   viewBox="0 0 180.539 180.539"
   version="1.1"
   id="svg27"
   xmlns:xlink="http://www.w3.org/1999/xlink"
   xmlns="http://www.w3.org/2000/svg"
   xmlns:svg="http://www.w3.org/2000/svg">
  <defs
     id="defs16">
    <linearGradient
       id="linearGradient1869">
      <stop
         style="stop-color:#b41317;stop-opacity:1"
         offset="0"
         id="stop1865" />
      <stop
         style="stop-color:#e42c27;stop-opacity:1"
         offset="1"
         id="stop1867" />
    </linearGradient>
    <filter
       id="Outer_Pins_Area"
       x="0"
       y="0"
       width="180.539"
       height="180.539"
       filterUnits="userSpaceOnUse">
      <feOffset
         dy="1"
         input="SourceAlpha"
         id="feOffset5" />
      <feGaussianBlur
         stdDeviation="3.5"
         result="blur"
         id="feGaussianBlur7" />
      <feFlood
         flood-opacity="0.102"
         id="feFlood9" />
      <feComposite
         operator="in"
         in2="blur"
         id="feComposite11"
         result="result1" />
      <feComposite
         in="SourceGraphic"
         in2="result1"
         id="feComposite13" />
    </filter>
    <linearGradient
       xlink:href="#linearGradient1869"
       id="linearGradient11171"
       x1="46.57798"
       y1="70.994949"
       x2="46.57798"
       y2="0.61022818"
       gradientUnits="userSpaceOnUse" />
  </defs>
  <g
     id="Logo"
     transform="translate(10.5 9.5)">
    <rect
       id="YouTube"
       width="72.324"
       height="71.261"
       rx="3"
       fill="url(#pattern)"
       style="fill-opacity:1;fill:url(#linearGradient11171)"
       transform="translate(43.607 44.139)" />
    <g
       transform="matrix(1, 0, 0, 1, -10.5, -9.5)"
       filter="url(#Outer_Pins_Area)"
       id="g20">
      <path
         id="Outer_Pins_Area-2"
         data-name="Outer Pins Area"
         d="M295.134,233.119h-73.2a9.125,9.125,0,0,0-6.467,2.7l-.017-.019a9.176,9.176,0,0,0-2.683,6.482v73.2a9.216,9.216,0,0,0,9.166,9.166h73.2a9.177,9.177,0,0,0,6.482-2.683l-.017-.017a9.135,9.135,0,0,0,2.7-6.467v-73.2a9.163,9.163,0,0,0-9.163-9.162Zm-75.1-29.9h14.542V217.2H251.26V199.114H265.8V217.2h16.681V203.22h14.542V217.2c12.931.937,22.259,10.264,23.194,23.194h13.974v14.542H320.221v16.681H338.3v14.544H320.221v16.681h13.974V317.38H320.221a24.876,24.876,0,0,1-7.658,16.13h0a22.875,22.875,0,0,1-15.536,7.062v13.976H282.484V340.572H265.8v18.081H251.26V340.572H234.579v13.976H220.036V340.572c-12.966-.934-22.26-10.227-23.192-23.192H182.87V302.837h13.973V286.156H178.763V271.612h18.081V254.931H182.87V240.389h13.442c.466-6.462,4.32-12.3,8.658-16.634v-.036c4.336-4.337,8.583-6.059,15.067-6.524Z"
         transform="translate(-168.26 -189.61)"
         fill="#0e1a32"
         fill-rule="evenodd" />
    </g>
    <g
       id="M"
       transform="translate(52.921 62.808)">
      <path
         id="YouTube-2"
         data-name="YouTube"
         d="M-60,0h11.142l11.142,33.425H-48.858Z"
         transform="translate(71.171 0.211)"
         fill="#fff" />
      <path
         id="Subtraction_1"
         data-name="Subtraction 1"
         d="M11.61,17.414H0L5.8,0h11.61l-5.8,17.414Z"
         transform="translate(0 17.414)"
         fill="#fff" />
      <path
         id="Subtraction_3"
         data-name="Subtraction 3"
         d="M22.39,33.585H11.2L5.6,16.792h11.2ZM5.6,16.792h0L0,0H11.2L5.6,16.792Z"
         transform="translate(31.097 0)"
         fill="#fff" />
    </g>
  </g>
</svg>
