<svg xmlns="http://www.w3.org/2000/svg" viewBox="0 0 2048 2048">
  <title>pandadoc Panda</title>
  <path id="background" fill="#16c3d3" d="M0 0L0 2048L2048 2048L2048 0L0 0z"/>
  <g id="head" transform="translate(0,-148)">
    <g id="cheeks">
      <path fill="#ffffff" d="M976 413.424C960.79 415.421 945.276 415.529 930 417.166C905.159 419.827 880.472 424.516 856 429.449C766.979 447.395 679.789 485.671 606 538.427C549.992 578.472 501.53 627.705 463.333 685C432.058 731.913 409.136 784.137 396.116 839C385.438 883.989 382.944 929.008 384.961 975C386.854 1018.16 396.804 1061.39 411.308 1102C472.556 1273.51 626.118 1397.27 796 1452.64C863.314 1474.58 932.559 1484.95 1003 1488.04C1044.17 1489.84 1086.11 1488.51 1127 1482.71C1229.78 1468.14 1328.46 1434.69 1416 1378.31C1473.23 1341.45 1524.71 1294.03 1564.85 1239C1597.29 1194.53 1622.68 1145.6 1639.03 1093C1652.09 1050.96 1660 1006.05 1660 962C1660 921.78 1655.9 882.111 1646.1 843C1638.61 813.04 1627.96 783.915 1614.78 756C1527.72 571.558 1337.83 455.524 1141 422.92C1100.78 416.258 1060.74 413 1020 413C1005.59 413 990.29 411.548 976 413.424z"/>
      <path fill="#d9d9d9" d="M727 1093C727.261 1101 723.619 1109.2 722.003 1117C719.034 1131.33 717.087 1145.44 716.089 1160C712.227 1216.4 725.426 1273.41 752.309 1323C765.956 1348.17 783.809 1370.81 804 1391C854.76 1441.76 925.473 1472.98 997 1477.91C1083.79 1483.89 1173 1450.76 1235 1389.99C1283.22 1342.72 1317.26 1273.83 1321.91 1206C1323.42 1183.92 1323.52 1162 1320.71 1140C1319.91 1133.68 1318.87 1127.26 1317.69 1121C1316.87 1116.66 1315.09 1113.24 1317 1109C1310.42 1103.26 1310.06 1091.96 1307.33 1084C1301.79 1067.86 1294.98 1051.88 1286.58 1037C1267.38 1003.02 1242.54 972.848 1212 948.449C1203.12 941.353 1193.43 936.223 1184 930.003C1169.14 920.204 1153.37 911.821 1137 904.85C1132.17 902.791 1123.41 897.187 1120 903C1128.13 903.288 1137 908.658 1144 912.576C1159.47 921.24 1174.12 930.298 1188 941.4C1229.08 974.264 1261.61 1019.33 1279.31 1069C1287.92 1093.17 1292.67 1118.58 1295.71 1144C1298.16 1164.46 1296.62 1184.67 1294.16 1205C1289.6 1242.58 1278.8 1279.53 1260.69 1313C1216.81 1394.12 1134.38 1451.86 1042 1460.83C1002.29 1464.69 963.68 1458.21 926 1445.65C896.548 1435.83 868.672 1418.05 845 1398.25C802.591 1362.77 770.028 1313.28 754.86 1260C750.764 1245.61 746.496 1230.71 744.089 1215.96C743.052 1209.6 743.487 1203.36 742.896 1197C742.579 1193.59 741.235 1190.44 741.043 1187C740.537 1177.92 741.566 1169.02 741.961 1160C743.353 1128.19 749.507 1095.86 760.814 1066C780.596 1013.76 816.839 965.951 862 933.152C876.277 922.783 891.861 913.054 908 905.861C913.282 903.507 918.583 901.188 924 899.158C927.581 897.817 930.818 897.292 933 894C915.578 894.371 896.27 906.118 881 913.753C830.024 939.241 786.793 979.092 757.449 1028C749.445 1041.34 742.468 1055.59 736.603 1070C733.702 1077.13 732.078 1087.24 727 1093z" id="path4874"/>
    </g>
    <path id="left-ear" fill="#2d2d2d" d="M760 457C757.386 443.529 752.362 430.258 746.247 418C739.962 405.402 732.275 393.494 722.829 383C678.884 334.173 608.454 319.507 546 333.887C478.279 349.481 416.73 401.67 390.691 466C384.112 482.256 377.957 499.411 376.171 517C370.835 569.519 382.423 618.498 417.425 659C425.801 668.692 436.349 676.939 447 683.996C449.802 685.853 455.151 690.641 458.79 689.554C461.668 688.694 463.543 684.27 465.144 682C470.567 674.313 475.828 666.529 481.475 659C499.884 634.455 520.544 611.008 543 590.089C584.279 551.638 630.824 518.157 681 492.259C706.77 478.957 733.838 469.235 760 457z"/>
    <path id="right-ear" fill="#2d2d2d" d="M1584 700C1599.01 693.643 1612.7 676.177 1621.66 663C1653.85 615.631 1654.52 553.918 1633.4 502C1590.74 397.136 1475.27 322.295 1361 333.17C1313.31 337.709 1267.4 357.381 1237.43 396C1230.29 405.198 1224.26 415.286 1219.7 426C1218.46 428.92 1215.43 434.345 1216.7 437.567C1217.81 440.414 1223.44 441.018 1226 441.809C1235.35 444.704 1244.71 447.569 1254 450.667C1289.82 462.608 1324.47 477.954 1358 495.259C1450.09 542.79 1526.38 614.511 1584 700z"/>
    <g id="left-eye">
      <path fill="#2d2d2d" d="M729 1092C731.62 1074.51 741.957 1055.26 750.576 1040C772.362 1001.44 800.453 968.034 836 941.373C850.533 930.474 865.944 921.345 882 912.889C886.878 910.32 898.93 907.794 901.397 902.606C903.572 898.032 901.945 889.988 902.004 885C902.146 873.024 903 861.04 903 849C903 836.45 903.204 823.457 901.714 811C899.842 795.348 895.725 780.243 891.895 765C886.876 745.021 880.967 726.206 869.254 709C852.281 684.068 816.267 668.022 787 679.464C736.281 699.292 709.773 754.537 690.604 802C684.488 817.144 680.296 832.364 672.742 847C666.591 858.917 658.937 870.218 650.985 881C643.552 891.078 634.032 899.359 626.084 909C607.586 931.438 590.272 959.509 586.95 989C585.835 998.899 585.311 1008.43 588.699 1018C591.555 1026.07 596.496 1032.69 602.169 1039C610.059 1047.78 618.164 1055.41 628 1062C641.475 1071.03 653.36 1077.96 669 1082.42C688.982 1088.12 708.133 1091.83 729 1092z" id="path12563"/>
      <path fill="#d9d9d9" d="M769 792.699C747.349 799.72 729.729 812.631 722.359 835C708.876 875.921 735.558 923.982 781 924C787.978 924.003 794.31 923.401 801 921.254C838.983 909.064 852.689 863.531 837.135 829C827.411 807.412 805.852 792.038 782 792C777.817 791.993 773.032 791.392 769 792.699z"/>
      <path fill="#ffffff" d="M788.133 815.028C777.293 821.211 786.92 838.678 797.956 832.821C810.12 826.366 799.228 808.699 788.133 815.028z" id="path13873"/>
      <path fill="#2d2d2d" d="M819 861C817.007 861.323 815.019 861.775 813.01 861.258C801.284 858.242 807.395 845.418 815 842C813.771 835.645 809.428 831.466 805 827C801.839 829.536 799.155 833.441 794.999 834.384C785.935 836.44 781.846 826.029 783 819C775.602 819 768.325 817.976 762 822.494C742.291 836.572 737.181 865.589 752.518 884.999C767.921 904.494 797.986 903.93 811.895 883C816.243 876.458 818.007 868.687 819 861z" id="path13919"/>
      <path fill="#ffffff" d="M812.044 844.028C802.502 849.112 808.4 865.41 818.957 859.682C829.4 854.016 823.101 838.136 812.044 844.028z" id="path14317"/>
      <path fill="#ffffff" d="M782.318 847.028C777.239 850.382 782.442 858.888 787.852 855.953C794.344 852.431 788.471 842.965 782.318 847.028z" id="path14367"/>
    </g>
    <g id="right-eye">
      <path fill="#2d2d2d" d="M1315 1109C1334.29 1112.98 1353.36 1114.04 1373 1112.17C1382.97 1111.22 1391.75 1110.25 1401 1105.88C1410.63 1101.33 1416.73 1093.97 1423.44 1086C1441.02 1065.14 1451.99 1039.79 1452 1012C1452 1003.63 1453.39 993.94 1450.38 986C1434.58 944.313 1398.4 916.399 1370.92 883C1362.47 872.742 1353.28 861.985 1347.37 850C1341.58 838.242 1337.81 825.374 1333.64 813C1332.04 808.224 1329.49 803.838 1328.04 799C1323.83 784.866 1321.58 771.592 1315.44 758C1308.75 743.217 1299.45 726.295 1285 717.877C1268.23 708.105 1248.5 702.949 1229 706.464C1222.68 707.604 1217.61 710.847 1212 713.741C1191.92 724.108 1176.01 740.88 1167.45 762C1155.42 791.708 1156.75 823.618 1155.99 855C1155.66 868.324 1155 881.613 1155 895C1155 899.875 1153.63 907.253 1155.6 911.787C1157.94 917.147 1169.15 920.894 1174 923.8C1189.28 932.947 1204.36 941.9 1218 953.424C1253.43 983.353 1281.55 1021.38 1299.85 1064C1305.78 1077.81 1313.68 1093.9 1315 1109z" id="path12879"/>
      <path fill="#d9d9d9" d="M1250 824.439C1240.83 825.883 1231.73 829.228 1224 834.356C1215.34 840.102 1208.46 847.101 1203.07 856C1199.59 861.748 1197.4 868.409 1196.25 875C1188.91 917.146 1227.12 953.683 1269 947.7C1291.99 944.416 1312.08 929.497 1321.12 908C1334.23 876.857 1319.21 839.045 1288 826.453C1281.3 823.748 1275.92 824.703 1269 824.545C1262.64 824.4 1256.36 823.438 1250 824.439z" id="path13997"/>
      <path fill="#ffffff" d="M1265.02 842.746C1255.15 846.524 1258.96 863.519 1269.98 859.257C1280.68 855.121 1276.08 838.511 1265.02 842.746z" id="path14305"/>
      <path fill="#2d2d2d" d="M1298 881C1291.46 883.753 1280.62 880.143 1283.76 871.005C1284.7 868.257 1286.78 866.652 1289 865L1289 862C1285.74 859.778 1281.38 854.933 1277.09 855.238C1273.95 855.461 1271.9 858.932 1268.99 859.947C1262.01 862.375 1258.5 854.504 1258 849C1232.07 849.074 1214.38 877.743 1226.92 901C1236.38 918.554 1258.31 922.833 1276 916.452C1282.96 913.94 1288.56 909.111 1292.64 903C1297.3 896.002 1298 889.171 1298 881z" id="path14431"/>
      <path fill="#ffffff" d="M1291 864.588C1280.01 867.437 1283.53 884.868 1294.98 881.482C1304.8 878.581 1301.76 861.802 1291 864.588z" id="path14793"/>
      <path fill="#ffffff" d="M1262.06 872.032C1253.85 876.404 1260.65 889.394 1268.89 884.82C1277.13 880.247 1270.22 867.684 1262.06 872.032z" id="path14923"/>
    </g>
    <path id="nose-mouth" fill="#2d2d2d" d="M1023 986C1020.74 995.496 1020.63 1006.25 1019.91 1016C1019.18 1025.99 1017.26 1035.98 1017.01 1046C1016.34 1073.43 1019.02 1099.75 1014.44 1127C1011.16 1146.5 1006.68 1169.12 989 1180.9C975.036 1190.19 954.747 1195.88 938 1192.33C925.609 1189.7 913.995 1182.62 904 1175.13C895.313 1168.61 886.534 1160.71 881.324 1151C877.395 1143.68 876.399 1134.22 876.039 1126C875.804 1120.62 876.612 1115.12 874.517 1110C870.835 1101.01 860.517 1099.28 855.228 1108.02C850.223 1116.28 850.413 1129.77 851.729 1139C852.688 1145.72 853.586 1152.69 856.232 1159C863.712 1176.82 881.519 1192.58 898 1202.12C907.595 1207.68 918.086 1213.1 929 1215.33C957.682 1221.22 991.144 1213.22 1011.71 1191.83C1020.14 1183.06 1024.2 1172.82 1029 1162C1034.45 1174.29 1039.53 1186.05 1049.04 1196C1068.83 1216.7 1097.15 1225 1125 1225C1134.77 1225 1144.67 1224.9 1154 1221.56C1178.17 1212.92 1197.25 1185.57 1205 1162C1208.16 1152.37 1210.22 1139.23 1204.63 1130.04C1199.01 1120.81 1187.55 1125.71 1183.99 1134C1181.79 1139.14 1182.42 1144.62 1181.71 1150C1180.81 1156.87 1178.07 1164.06 1174.55 1170C1169.36 1178.75 1161.72 1188.15 1153 1193.53C1129.92 1207.78 1096.59 1201.03 1075 1187.3C1051.14 1172.13 1039.6 1145.5 1037.17 1118C1036.6 1111.52 1038 1104.57 1038 1098C1038 1075.63 1037.56 1053.3 1037.01 1031C1036.65 1016.13 1037.72 1000.66 1035 986C1054.51 981.367 1070.49 965.845 1084.01 952C1093.01 942.797 1101.58 933.976 1108.42 923C1115.14 912.231 1124.05 899.954 1117.73 887C1111.58 874.412 1101.17 868.261 1089 862.77C1064.89 851.888 1038.02 850.651 1012 853.17C990.361 855.264 965.955 864.484 949 878.004C944.333 881.725 935.596 887.783 934.354 894.039C933.613 897.775 935.692 901.751 937.258 905C941.1 912.966 945.272 921.264 951.065 928C966.476 945.921 980.188 964.897 1001 977.139C1008.14 981.337 1014.7 984.927 1023 986z"/>
  </g>
  <text id="title-text" font-size="340px" font-family="sans-serif" fill="#2d2d2d" x="220" y="1835">pandadoc</text>
</svg>
