<?xml version="1.0" encoding="utf-8"?>
<svg viewBox="0 0 500 500" xmlns="http://www.w3.org/2000/svg" xmlns:bx="https://boxy-svg.com">
  <defs>
    <linearGradient gradientUnits="userSpaceOnUse" x1="243.931" y1="15.376" x2="243.931" y2="474.643" id="gradient-0" spreadMethod="reflect" gradientTransform="matrix(0.685064, -0.728486, 0.217738, 0.140956, -20.456276, 360.79677)">
      <stop offset="0" style="stop-color: rgb(255, 231, 50);"/>
      <stop offset="1" style="stop-color: rgb(255, 237, 99);"/>
    </linearGradient>
    <filter id="drop-shadow-filter-0" x="-500%" y="-500%" width="1000%" height="1000%" bx:preset="drop-shadow 1 10 10 7 0.5 rgba(0,0,0,0.3)">
      <feGaussianBlur in="SourceAlpha" stdDeviation="7"/>
      <feOffset dx="10" dy="10"/>
      <feComponentTransfer result="offsetblur">
        <feFuncA id="spread-ctrl" type="linear" slope="1"/>
      </feComponentTransfer>
      <feFlood flood-color="rgba(0,0,0,0.3)"/>
      <feComposite in2="offsetblur" operator="in"/>
      <feMerge>
        <feMergeNode/>
        <feMergeNode in="SourceGraphic"/>
      </feMerge>
    </filter>
    <radialGradient gradientUnits="userSpaceOnUse" cx="99.213" cy="125.731" r="244.186" id="gradient-1">
      <stop offset="0" style="stop-color: rgb(171, 210, 72);"/>
      <stop offset="1" style="stop-color: rgb(125, 174, 73);"/>
    </radialGradient>
    <bx:grid x="0" y="0" width="25" height="25"/>
  </defs>
  <path style="fill: url(#gradient-1); stroke-width: 7.09645px; stroke: rgb(58, 87, 9); filter: none; stroke-linecap: round; stroke-linejoin: round;" transform="matrix(0.819049, 0, 0, 0.819053, 168.739685, 143.982239)" d="M 67.183863092 -114.745 L 131.242136908 -114.745 L 140.847233848 -60.706340053 A 192.815 192.815 0 0 1 188.334597224 -43.42235328 L 230.427909419 -78.644331144 L 279.499394112 -37.468466436 L 252.12194419 10.101586032 A 192.815 192.815 0 0 1 277.389442479 53.86617685 L 332.275041337 53.941635961 L 343.39864385 117.02672066 L 291.848860152 135.869609418 A 192.815 192.815 0 0 1 283.073550087 185.636865847 L 325.069853918 220.974453776 L 293.04071701 276.450546224 L 241.439316239 257.749474206 A 192.815 192.815 0 0 1 202.727262927 290.232743862 L 212.183734431 344.297610484 L 151.988647226 366.206830476 L 124.480498289 318.712237118 A 192.815 192.815 0 0 1 73.945501711 318.712237118 L 46.437352774 366.206830476 L -13.757734431 344.297610484 L -4.301262927 290.232743862 A 192.815 192.815 0 0 1 -43.013316239 257.749474206 L -94.61471701 276.450546224 L -126.643853918 220.974453776 L -84.647550087 185.636865847 A 192.815 192.815 0 0 1 -93.422860152 135.869609418 L -144.97264385 117.02672066 L -133.849041337 53.941635961 L -78.963442479 53.86617685 A 192.815 192.815 0 0 1 -53.69594419 10.101586032 L -81.073394112 -37.468466436 L -32.001909419 -78.644331144 L 10.091402776 -43.42235328 A 192.815 192.815 0 0 1 57.578766152 -60.706340053 Z M 99.213 5.01 A 122.55 122.55 0 0 0 99.213 250.11 A 122.55 122.55 0 0 0 99.213 5.01" bx:shape="cog 99.213 127.56 122.55 192.815 242.305 0.247 9 1@57dd1acd"/>
  <polygon style="fill: url(#gradient-0); stroke-width: 6px; stroke-linecap: round; stroke-linejoin: round; filter: url(#drop-shadow-filter-0); stroke: rgb(217, 163, 0);" points="320.70001220703125 23.881000518798828 124.43000030517578 298.8330078125 234.9530029296875 277.0159912109375 174.06300354003906 476.5329895019531 373.82598876953125 202.3209991455078 261.8240051269531 223.9739990234375"/>
</svg>