<?xml version="1.0" encoding="UTF-8" standalone="no"?>
<svg
   width="16"
   height="16"
   viewBox="0 0 256 256"
   xmlns="http://www.w3.org/2000/svg"
   xmlns:svg="http://www.w3.org/2000/svg">
  <circle
     cx="128"
     cy="128"
     fill="#80b049"
     r="120"
     stroke="#000000"
     stroke-width="0"
  />
  <path
     style="display:inline;fill:#ffffff;fill-opacity:1;stroke:#000000;stroke-width:16;stroke-linejoin:round;stroke-miterlimit:4;stroke-dasharray:none;stroke-opacity:1"
     d="m 90.411656,66.443583 q 3.81351,-3.252699 8.187829,-6.168911 4.486485,-2.916214 9.645945,-5.047293 5.27161,-2.243241 11.21619,-3.477023 6.05675,-1.233783 13.0108,-1.233783 9.64594,0 17.49728,2.691889 7.85135,2.579728 13.45944,7.514857 5.60811,4.822968 8.63649,11.777015 3.14053,6.841884 3.14053,15.3662 0,8.299992 -2.3554,14.244576 -2.35541,5.9446 -5.94459,10.43107 -3.58919,4.37432 -7.85134,7.73918 -4.26216,3.2527 -8.07567,6.05675 -3.70135,2.80405 -6.5054,5.60811 -2.80405,2.69189 -3.36486,6.16891 l -2.69189,15.59052 h -19.40404 l -2.13107,-17.60944 q -0.67298,-5.15945 1.45811,-8.97296 2.13107,-3.81351 5.6081,-6.95405 3.58918,-3.2527 7.85134,-6.16891 4.37432,-3.02837 8.07567,-6.39323 3.81351,-3.47703 6.28107,-7.851349 2.57973,-4.37432 2.57973,-10.318908 0,-7.402696 -5.15946,-11.664853 -5.15945,-4.374319 -13.5716,-4.374319 -6.05675,0 -10.20675,1.345944 -4.15,1.345945 -7.17837,2.916213 -2.91621,1.570269 -4.93513,2.916214 -2.01892,1.345944 -3.81351,1.345944 -3.81351,0 -5.944587,-3.477024 z M 110.26434,193.7475 q 0,-3.47702 1.23378,-6.61756 1.34594,-3.14054 3.58919,-5.38377 2.3554,-2.24324 5.49594,-3.58919 3.14053,-1.34595 6.72972,-1.34595 3.58919,0 6.72972,1.34595 3.14054,1.34595 5.38378,3.58919 2.35541,2.24323 3.70134,5.38377 1.34595,3.14054 1.34595,6.61756 0,3.58919 -1.34595,6.72972 -1.34593,3.14054 -3.70134,5.38379 -2.24324,2.24324 -5.38378,3.47702 -3.14053,1.34594 -6.72972,1.34594 -3.58919,0 -6.72972,-1.34594 -3.14054,-1.23378 -5.49594,-3.47702 -2.24325,-2.24325 -3.58919,-5.38379 -1.23378,-3.14053 -1.23378,-6.72972 z"
  />
  <path
     style="display:inline;fill:#ffffff;fill-opacity:1;"
     d="m 90.411656,66.443583 q 3.81351,-3.252699 8.187829,-6.168911 4.486485,-2.916214 9.645945,-5.047293 5.27161,-2.243241 11.21619,-3.477023 6.05675,-1.233783 13.0108,-1.233783 9.64594,0 17.49728,2.691889 7.85135,2.579728 13.45944,7.514857 5.60811,4.822968 8.63649,11.777015 3.14053,6.841884 3.14053,15.3662 0,8.299992 -2.3554,14.244576 -2.35541,5.9446 -5.94459,10.43107 -3.58919,4.37432 -7.85134,7.73918 -4.26216,3.2527 -8.07567,6.05675 -3.70135,2.80405 -6.5054,5.60811 -2.80405,2.69189 -3.36486,6.16891 l -2.69189,15.59052 h -19.40404 l -2.13107,-17.60944 q -0.67298,-5.15945 1.45811,-8.97296 2.13107,-3.81351 5.6081,-6.95405 3.58918,-3.2527 7.85134,-6.16891 4.37432,-3.02837 8.07567,-6.39323 3.81351,-3.47703 6.28107,-7.851349 2.57973,-4.37432 2.57973,-10.318908 0,-7.402696 -5.15946,-11.664853 -5.15945,-4.374319 -13.5716,-4.374319 -6.05675,0 -10.20675,1.345944 -4.15,1.345945 -7.17837,2.916213 -2.91621,1.570269 -4.93513,2.916214 -2.01892,1.345944 -3.81351,1.345944 -3.81351,0 -5.944587,-3.477024 z M 110.26434,193.7475 q 0,-3.47702 1.23378,-6.61756 1.34594,-3.14054 3.58919,-5.38377 2.3554,-2.24324 5.49594,-3.58919 3.14053,-1.34595 6.72972,-1.34595 3.58919,0 6.72972,1.34595 3.14054,1.34595 5.38378,3.58919 2.35541,2.24323 3.70134,5.38377 1.34595,3.14054 1.34595,6.61756 0,3.58919 -1.34595,6.72972 -1.34593,3.14054 -3.70134,5.38379 -2.24324,2.24324 -5.38378,3.47702 -3.14053,1.34594 -6.72972,1.34594 -3.58919,0 -6.72972,-1.34594 -3.14054,-1.23378 -5.49594,-3.47702 -2.24325,-2.24325 -3.58919,-5.38379 -1.23378,-3.14053 -1.23378,-6.72972 z"
  />
</svg>
