<?xml version="1.0" encoding="UTF-8" standalone="no"?>
<!-- Created with Inkscape (http://www.inkscape.org/) -->

<svg
   width="16"
   height="16"
   viewBox="0 0 4.2333333 4.2333333"
   version="1.1"
   id="svg5"
   inkscape:version="1.1 (c68e22c387, 2021-05-23)"
   sodipodi:docname="word-wrap.svg"
   xmlns:inkscape="http://www.inkscape.org/namespaces/inkscape"
   xmlns:sodipodi="http://sodipodi.sourceforge.net/DTD/sodipodi-0.dtd"
   xmlns="http://www.w3.org/2000/svg"
   xmlns:svg="http://www.w3.org/2000/svg">
  <sodipodi:namedview
     id="namedview7"
     pagecolor="#505050"
     bordercolor="#eeeeee"
     borderopacity="1"
     inkscape:pageshadow="0"
     inkscape:pageopacity="0"
     inkscape:pagecheckerboard="true"
     inkscape:document-units="mm"
     showgrid="true"
     units="px"
     width="16px"
     inkscape:zoom="25.264454"
     inkscape:cx="9.7765817"
     inkscape:cy="11.973344"
     inkscape:window-width="1920"
     inkscape:window-height="1016"
     inkscape:window-x="0"
     inkscape:window-y="27"
     inkscape:window-maximized="1"
     inkscape:current-layer="layer1">
    <inkscape:grid
       type="xygrid"
       id="grid841"
       empcolor="#3fbfff"
       empopacity="0.67058824"
       empspacing="8"
       color="#3f80ff"
       opacity="0.35294118"
       spacingx="0.13229167"
       spacingy="0.13229167"
       dotted="false"
       snapvisiblegridlinesonly="true" />
  </sodipodi:namedview>
  <defs
     id="defs2">
    <inkscape:path-effect
       effect="fillet_chamfer"
       id="path-effect1735"
       is_visible="true"
       lpeversion="1"
       satellites_param="F,0,0,1,0,0.52916667,0,1 @ F,0,0,1,0,0.52916667,0,1 @ F,0,0,1,0,0.52916667,0,1 @ F,0,0,1,0,0.52916667,0,1 @ F,0,0,1,0,0.52916667,0,1 @ F,0,0,1,0,0.52916667,0,1"
       unit="px"
       method="auto"
       mode="F"
       radius="2"
       chamfer_steps="1"
       flexible="false"
       use_knot_distance="true"
       apply_no_radius="true"
       apply_with_radius="true"
       only_selected="false"
       hide_knots="false" />
  </defs>
  <g
     inkscape:label="Layer 1"
     inkscape:groupmode="layer"
     id="layer1"
     style="display:inline">
    <rect
       style="fill:#c0c0c0;stroke-width:0.264583;fill-opacity:1"
       id="rect875"
       width="3.7041667"
       height="0.5291667"
       x="0.26458332"
       y="0.52916664"
       ry="0.26458335" />
    <rect
       style="fill:#c0c0c0;stroke-width:0.264583;fill-opacity:1"
       id="rect875-5"
       width="1.5875001"
       height="0.52916682"
       x="0.26458332"
       y="3.175"
       ry="0.25647804" />
    <path
       id="rect875-5-9"
       style="display:inline;fill:#c0c0c0;stroke-width:0.999999;fill-opacity:1"
       d="M 2 7 C 1.4460003 7 1 7.421189 1 7.9453125 L 1 8.0546875 C 1 8.578811 1.4460003 9 2 9 L 8.3378906 9 L 11.5 9 A 1.5 1.5 0 0 1 13 10.5 A 1.5 1.5 0 0 1 11.5 12 L 11.5 11.363281 A 0.30551452 0.30551452 0 0 0 11.041016 11.099609 L 9.1660156 12.181641 L 8.2089844 12.736328 A 0.30551452 0.30551452 0 0 0 8.2089844 13.263672 L 10.083984 14.347656 L 11.041016 14.900391 A 0.30551452 0.30551452 0 0 0 11.5 14.636719 L 11.5 14 A 3.5 3.5 0 0 0 15 10.5 A 3.5 3.5 0 0 0 11.550781 7.0019531 C 11.53369 7.0011388 11.517312 7 11.5 7 L 2 7 z "
       transform="scale(0.26458333)" />
  </g>
</svg>
