<?xml version="1.0" encoding="UTF-8" standalone="no"?>
<svg
   width="16"
   height="16"
   viewBox="0 0 256 256"
   xmlns="http://www.w3.org/2000/svg"
   xmlns:svg="http://www.w3.org/2000/svg">
  <g>
    <circle
       cx="128"
       cy="128"
       fill="#b02619"
       r="120"
       stroke="#000000"
       stroke-width="0" />
    <path
       style="display:inline;fill:#ffffff;fill-opacity:1;stroke:#000000;stroke-opacity:1;stroke-width:6;stroke-miterlimit:4;stroke-dasharray:none;stroke-linejoin:round"
       d="M 85.574219 60.595703 C 83.529266 60.595703 81.482964 61.378364 79.916016 62.945312 L 62.945312 79.916016 C 59.811415 83.049913 59.811415 88.096571 62.945312 91.230469 L 99.714844 128 L 62.945312 164.76953 C 59.811415 167.90343 59.811415 172.95009 62.945312 176.08398 L 79.916016 193.05469 C 83.049913 196.18858 88.096571 196.18858 91.230469 193.05469 L 128 156.28516 L 164.76953 193.05469 C 167.90343 196.18858 172.95009 196.18858 176.08398 193.05469 L 193.05469 176.08398 C 196.18858 172.95009 196.18858 167.90343 193.05469 164.76953 L 156.28516 128 L 193.05469 91.230469 C 196.18858 88.096571 196.18858 83.049913 193.05469 79.916016 L 176.08398 62.945312 C 172.95009 59.811415 167.90343 59.811415 164.76953 62.945312 L 128 99.714844 L 91.230469 62.945312 C 89.66352 61.378364 87.619172 60.595703 85.574219 60.595703 z " />
  </g>
</svg>
